<?xml version="1.0" encoding="UTF-8" standalone="no"?>
<!DOCTYPE svg PUBLIC "-//W3C//DTD SVG 1.1//EN" "http://www.w3.org/Graphics/SVG/1.1/DTD/svg11.dtd">
<svg width="100%" height="100%" viewBox="0 0 128 128" version="1.1" xmlns="http://www.w3.org/2000/svg" xmlns:xlink="http://www.w3.org/1999/xlink" xml:space="preserve" xmlns:serif="http://www.serif.com/" style="fill-rule:evenodd;clip-rule:evenodd;stroke-linejoin:round;stroke-miterlimit:2;">
    <g transform="matrix(1,0,0,1,-2159.02,0)">
        <g id="export" transform="matrix(0.0666667,0,0,0.118519,2159.02,0)">
            <rect x="0" y="0" width="1920" height="1080" style="fill:none;"/>
            <clipPath id="_clip1">
                <rect x="0" y="0" width="1920" height="1080"/>
            </clipPath>
            <g clip-path="url(#_clip1)">
                <g transform="matrix(9.6,0,0,5.4,-240,-162)">
                    <path d="M125,230L46.1,186.3L31.9,63.2L125,30L218.1,63.2L203.9,186.3L125,230ZM125,186.928C128.131,186.928 130.811,185.813 133.041,183.583C135.271,181.354 136.386,178.673 136.386,175.542L113.614,175.542C113.614,178.673 114.729,181.354 116.959,183.583C119.189,185.813 121.869,186.928 125,186.928ZM103.652,152.771L146.348,152.771C152.895,148.881 158.089,143.663 161.932,137.116C165.774,130.569 167.696,123.453 167.696,115.768C167.696,103.908 163.545,93.827 155.243,85.525C146.941,77.223 136.86,73.072 125,73.072C113.14,73.072 103.059,77.223 94.757,85.525C86.455,93.827 82.304,103.908 82.304,115.768C82.304,123.453 84.226,130.569 88.068,137.116C91.911,143.663 97.105,148.881 103.652,152.771ZM102.229,169.849L147.771,169.849L147.771,158.464L102.229,158.464L102.229,169.849Z"/>
                </g>
            </g>
        </g>
    </g>
</svg>
