<?xml version="1.0" encoding="UTF-8" standalone="no"?>
<!DOCTYPE svg PUBLIC "-//W3C//DTD SVG 1.1//EN" "http://www.w3.org/Graphics/SVG/1.1/DTD/svg11.dtd">
<svg width="100%" height="100%" viewBox="0 0 128 128" version="1.1" xmlns="http://www.w3.org/2000/svg" xmlns:xlink="http://www.w3.org/1999/xlink" xml:space="preserve" xmlns:serif="http://www.serif.com/" style="fill-rule:evenodd;clip-rule:evenodd;stroke-linejoin:round;stroke-miterlimit:2;">
    <g transform="matrix(1,0,0,1,-2159.02,0)">
        <g id="export" transform="matrix(0.0666667,0,0,0.118519,2159.02,0)">
            <rect x="0" y="0" width="1920" height="1080" style="fill:none;"/>
            <clipPath id="_clip1">
                <rect x="0" y="0" width="1920" height="1080"/>
            </clipPath>
            <g clip-path="url(#_clip1)">
                <g transform="matrix(9.93768,0,0,5.58994,-282.209,-179.138)">
                    <path d="M141.076,221.096C131.074,226.636 118.926,226.636 108.924,221.096C94.898,213.327 74.706,202.144 61.029,194.569C51.66,189.379 45.372,179.986 44.144,169.346C41.761,148.684 37.708,113.547 34.922,89.397C33.153,74.059 42.196,59.528 56.738,54.343C75.31,47.72 99.824,38.978 113.855,33.974C121.063,31.404 128.937,31.404 136.145,33.974C150.176,38.978 174.69,47.72 193.262,54.343C207.804,59.528 216.847,74.059 215.078,89.397C212.292,113.547 208.239,148.684 205.856,169.346C204.628,179.986 198.34,189.379 188.971,194.569C175.294,202.144 155.102,213.327 141.076,221.096ZM125,186.928C128.131,186.928 130.811,185.813 133.041,183.583C135.271,181.354 136.386,178.673 136.386,175.542L113.614,175.542C113.614,178.673 114.729,181.354 116.959,183.583C119.189,185.813 121.869,186.928 125,186.928ZM103.652,152.771L146.348,152.771C152.895,148.881 158.089,143.663 161.932,137.116C165.774,130.569 167.696,123.453 167.696,115.768C167.696,103.908 163.545,93.827 155.243,85.525C146.941,77.223 136.86,73.072 125,73.072C113.14,73.072 103.059,77.223 94.757,85.525C86.455,93.827 82.304,103.908 82.304,115.768C82.304,123.453 84.226,130.569 88.068,137.116C91.911,143.663 97.105,148.881 103.652,152.771ZM102.229,169.849L147.771,169.849L147.771,158.464L102.229,158.464L102.229,169.849Z" style="fill:url(#_Linear2);"/>
                </g>
            </g>
        </g>
    </g>
    <defs>
        <linearGradient id="_Linear2" x1="0" y1="0" x2="1" y2="0" gradientUnits="userSpaceOnUse" gradientTransform="matrix(186.2,-200,200,186.2,31.9,230)"><stop offset="0" style="stop-color:rgb(0,102,255);stop-opacity:1"/><stop offset="1" style="stop-color:rgb(0,255,208);stop-opacity:1"/></linearGradient>
    </defs>
</svg>
